<?xml version="1.0" encoding="UTF-8"?>
<svg xmlns="http://www.w3.org/2000/svg" xmlns:xlink="http://www.w3.org/1999/xlink" width="375pt" height="374.999991pt" viewBox="0 0 375 374.999991" version="1.2">
<defs>
<clipPath id="clip1">
  <path d="M 75.363281 0 L 245.140625 0 L 245.140625 169.777344 L 75.363281 169.777344 Z M 75.363281 0 "/>
</clipPath>
<clipPath id="clip2">
  <path d="M 88.101562 76.175781 L 328.460938 76.175781 L 328.460938 316.535156 L 88.101562 316.535156 Z M 88.101562 76.175781 "/>
</clipPath>
<clipPath id="clip3">
  <path d="M 102 203 L 272.691406 203 L 272.691406 374.871094 L 102 374.871094 Z M 102 203 "/>
</clipPath>
<clipPath id="clip4">
  <path d="M 60.945312 136.421875 L 232 136.421875 L 232 308 L 60.945312 308 Z M 60.945312 136.421875 "/>
</clipPath>
</defs>
<g id="surface1">
<g clip-path="url(#clip1)" clip-rule="nonzero">
<path style=" stroke:none;fill-rule:nonzero;fill:rgb(85.099792%,85.099792%,85.099792%);fill-opacity:1;" d="M 245.167969 84.902344 C 245.167969 86.292969 245.132812 87.679688 245.066406 89.066406 C 244.996094 90.457031 244.894531 91.839844 244.757812 93.222656 C 244.625 94.605469 244.453125 95.984375 244.25 97.359375 C 244.046875 98.734375 243.808594 100.101562 243.535156 101.464844 C 243.265625 102.828125 242.960938 104.183594 242.625 105.53125 C 242.285156 106.878906 241.914062 108.21875 241.511719 109.546875 C 241.109375 110.878906 240.671875 112.195312 240.203125 113.503906 C 239.738281 114.8125 239.238281 116.109375 238.707031 117.390625 C 238.171875 118.675781 237.609375 119.945312 237.015625 121.203125 C 236.421875 122.457031 235.796875 123.699219 235.144531 124.925781 C 234.488281 126.148438 233.804688 127.359375 233.089844 128.550781 C 232.375 129.742188 231.632812 130.914062 230.859375 132.070312 C 230.085938 133.226562 229.289062 134.363281 228.460938 135.476562 C 227.632812 136.59375 226.777344 137.6875 225.894531 138.761719 C 225.015625 139.835938 224.109375 140.890625 223.175781 141.917969 C 222.242188 142.949219 221.285156 143.953125 220.300781 144.9375 C 219.320312 145.917969 218.3125 146.878906 217.28125 147.808594 C 216.253906 148.742188 215.203125 149.652344 214.128906 150.53125 C 213.054688 151.414062 211.957031 152.269531 210.84375 153.097656 C 209.726562 153.921875 208.589844 154.722656 207.433594 155.496094 C 206.28125 156.265625 205.105469 157.011719 203.914062 157.726562 C 202.722656 158.4375 201.515625 159.125 200.289062 159.777344 C 199.0625 160.433594 197.824219 161.058594 196.566406 161.652344 C 195.308594 162.246094 194.039062 162.808594 192.757812 163.339844 C 191.472656 163.871094 190.175781 164.371094 188.867188 164.839844 C 187.558594 165.308594 186.242188 165.746094 184.910156 166.148438 C 183.582031 166.550781 182.242188 166.921875 180.894531 167.257812 C 179.546875 167.597656 178.191406 167.902344 176.828125 168.171875 C 175.46875 168.445312 174.097656 168.679688 172.722656 168.886719 C 171.347656 169.089844 169.972656 169.257812 168.589844 169.394531 C 167.207031 169.53125 165.820312 169.632812 164.433594 169.703125 C 163.042969 169.769531 161.65625 169.804688 160.265625 169.804688 C 158.875 169.804688 157.488281 169.769531 156.101562 169.703125 C 154.710938 169.632812 153.328125 169.53125 151.945312 169.394531 C 150.5625 169.257812 149.183594 169.089844 147.808594 168.886719 C 146.433594 168.679688 145.066406 168.445312 143.703125 168.171875 C 142.339844 167.902344 140.984375 167.597656 139.636719 167.257812 C 138.289062 166.921875 136.949219 166.550781 135.621094 166.148438 C 134.289062 165.746094 132.972656 165.308594 131.664062 164.839844 C 130.355469 164.371094 129.058594 163.871094 127.777344 163.339844 C 126.492188 162.808594 125.222656 162.246094 123.964844 161.652344 C 122.710938 161.058594 121.46875 160.433594 120.242188 159.777344 C 119.019531 159.125 117.808594 158.4375 116.617188 157.726562 C 115.425781 157.011719 114.253906 156.265625 113.097656 155.496094 C 111.941406 154.722656 110.804688 153.921875 109.691406 153.097656 C 108.574219 152.269531 107.480469 151.414062 106.40625 150.53125 C 105.332031 149.652344 104.277344 148.742188 103.25 147.808594 C 102.21875 146.878906 101.214844 145.917969 100.230469 144.9375 C 99.25 143.953125 98.292969 142.949219 97.359375 141.917969 C 96.425781 140.890625 95.515625 139.835938 94.636719 138.761719 C 93.753906 137.6875 92.898438 136.59375 92.074219 135.476562 C 91.246094 134.363281 90.445312 133.226562 89.671875 132.070312 C 88.902344 130.914062 88.15625 129.742188 87.441406 128.550781 C 86.730469 127.359375 86.042969 126.148438 85.390625 124.925781 C 84.734375 123.699219 84.109375 122.457031 83.515625 121.203125 C 82.921875 119.945312 82.359375 118.675781 81.828125 117.390625 C 81.296875 116.109375 80.796875 114.8125 80.328125 113.503906 C 79.859375 112.195312 79.421875 110.878906 79.019531 109.546875 C 78.617188 108.21875 78.246094 106.878906 77.910156 105.53125 C 77.570312 104.183594 77.265625 102.828125 76.996094 101.464844 C 76.722656 100.101562 76.488281 98.734375 76.28125 97.359375 C 76.078125 95.984375 75.910156 94.605469 75.773438 93.222656 C 75.636719 91.839844 75.535156 90.457031 75.464844 89.066406 C 75.398438 87.679688 75.363281 86.292969 75.363281 84.902344 C 75.363281 83.511719 75.398438 82.125 75.464844 80.734375 C 75.535156 79.347656 75.636719 77.960938 75.773438 76.582031 C 75.910156 75.199219 76.078125 73.820312 76.28125 72.445312 C 76.488281 71.070312 76.722656 69.699219 76.996094 68.339844 C 77.265625 66.976562 77.570312 65.621094 77.910156 64.273438 C 78.246094 62.925781 78.617188 61.585938 79.019531 60.257812 C 79.421875 58.925781 79.859375 57.609375 80.328125 56.300781 C 80.796875 54.992188 81.296875 53.695312 81.828125 52.410156 C 82.359375 51.128906 82.921875 49.859375 83.515625 48.601562 C 84.109375 47.34375 84.734375 46.105469 85.390625 44.878906 C 86.042969 43.652344 86.730469 42.445312 87.441406 41.253906 C 88.15625 40.0625 88.902344 38.886719 89.671875 37.734375 C 90.445312 36.578125 91.246094 35.441406 92.074219 34.324219 C 92.898438 33.210938 93.753906 32.113281 94.636719 31.039062 C 95.515625 29.964844 96.425781 28.914062 97.359375 27.886719 C 98.292969 26.855469 99.25 25.851562 100.230469 24.867188 C 101.214844 23.882812 102.21875 22.925781 103.25 21.992188 C 104.277344 21.0625 105.332031 20.152344 106.40625 19.273438 C 107.480469 18.390625 108.574219 17.535156 109.691406 16.707031 C 110.804688 15.878906 111.941406 15.082031 113.097656 14.308594 C 114.253906 13.535156 115.425781 12.792969 116.617188 12.078125 C 117.808594 11.363281 119.019531 10.679688 120.242188 10.023438 C 121.46875 9.371094 122.710938 8.746094 123.964844 8.152344 C 125.222656 7.558594 126.492188 6.996094 127.777344 6.460938 C 129.058594 5.929688 130.355469 5.429688 131.664062 4.964844 C 132.972656 4.496094 134.289062 4.058594 135.621094 3.65625 C 136.949219 3.253906 138.289062 2.882812 139.636719 2.542969 C 140.984375 2.207031 142.339844 1.902344 143.703125 1.632812 C 145.066406 1.359375 146.433594 1.121094 147.808594 0.917969 C 149.183594 0.714844 150.5625 0.546875 151.945312 0.410156 C 153.328125 0.273438 154.710938 0.171875 156.101562 0.101562 C 157.488281 0.0351562 158.875 0 160.265625 0 C 161.65625 0 163.042969 0.0351562 164.433594 0.101562 C 165.820312 0.171875 167.207031 0.273438 168.589844 0.410156 C 169.972656 0.546875 171.347656 0.714844 172.722656 0.917969 C 174.097656 1.121094 175.46875 1.359375 176.828125 1.632812 C 178.191406 1.902344 179.546875 2.207031 180.894531 2.542969 C 182.242188 2.882812 183.582031 3.253906 184.910156 3.65625 C 186.242188 4.058594 187.558594 4.496094 188.867188 4.964844 C 190.175781 5.429688 191.472656 5.929688 192.757812 6.460938 C 194.039062 6.996094 195.308594 7.558594 196.566406 8.152344 C 197.824219 8.746094 199.0625 9.371094 200.289062 10.023438 C 201.515625 10.679688 202.722656 11.363281 203.914062 12.078125 C 205.105469 12.792969 206.28125 13.535156 207.433594 14.308594 C 208.589844 15.082031 209.726562 15.878906 210.84375 16.707031 C 211.957031 17.535156 213.054688 18.390625 214.128906 19.273438 C 215.203125 20.152344 216.253906 21.0625 217.28125 21.992188 C 218.3125 22.925781 219.320312 23.882812 220.300781 24.867188 C 221.285156 25.851562 222.242188 26.855469 223.175781 27.886719 C 224.109375 28.914062 225.015625 29.964844 225.894531 31.039062 C 226.777344 32.113281 227.632812 33.210938 228.460938 34.324219 C 229.289062 35.441406 230.085938 36.578125 230.859375 37.734375 C 231.632812 38.886719 232.375 40.0625 233.089844 41.253906 C 233.804688 42.445312 234.488281 43.652344 235.144531 44.878906 C 235.796875 46.105469 236.421875 47.34375 237.015625 48.601562 C 237.609375 49.859375 238.171875 51.128906 238.707031 52.410156 C 239.238281 53.695312 239.738281 54.992188 240.203125 56.300781 C 240.671875 57.609375 241.109375 58.925781 241.511719 60.257812 C 241.914062 61.585938 242.285156 62.925781 242.625 64.273438 C 242.960938 65.621094 243.265625 66.976562 243.535156 68.339844 C 243.808594 69.699219 244.046875 71.070312 244.25 72.445312 C 244.453125 73.820312 244.625 75.199219 244.757812 76.582031 C 244.894531 77.960938 244.996094 79.347656 245.066406 80.734375 C 245.132812 82.125 245.167969 83.511719 245.167969 84.902344 Z M 245.167969 84.902344 "/>
</g>
<g clip-path="url(#clip2)" clip-rule="nonzero">
<path style=" stroke:none;fill-rule:nonzero;fill:rgb(100%,87.059021%,34.899902%);fill-opacity:1;" d="M 287.21875 76.175781 C 288.851562 77.804688 290.4375 79.472656 291.988281 81.179688 C 293.535156 82.886719 295.042969 84.632812 296.503906 86.414062 C 297.96875 88.195312 299.386719 90.011719 300.757812 91.859375 C 302.132812 93.710938 303.460938 95.59375 304.742188 97.511719 C 306.019531 99.425781 307.253906 101.371094 308.441406 103.347656 C 309.625 105.324219 310.761719 107.332031 311.847656 109.363281 C 312.9375 111.394531 313.972656 113.453125 314.957031 115.535156 C 315.945312 117.617188 316.878906 119.726562 317.761719 121.855469 C 318.644531 123.984375 319.472656 126.132812 320.25 128.300781 C 321.027344 130.472656 321.75 132.660156 322.421875 134.867188 C 323.089844 137.070312 323.703125 139.292969 324.265625 141.527344 C 324.824219 143.761719 325.332031 146.011719 325.78125 148.269531 C 326.230469 150.53125 326.625 152.800781 326.964844 155.082031 C 327.304688 157.359375 327.585938 159.648438 327.8125 161.941406 C 328.039062 164.234375 328.207031 166.53125 328.320312 168.835938 C 328.433594 171.136719 328.492188 173.4375 328.492188 175.746094 C 328.492188 178.050781 328.4375 180.351562 328.324219 182.652344 C 328.210938 184.957031 328.042969 187.253906 327.816406 189.546875 C 327.589844 191.839844 327.308594 194.128906 326.972656 196.40625 C 326.632812 198.6875 326.238281 200.957031 325.789062 203.21875 C 325.339844 205.480469 324.835938 207.726562 324.277344 209.964844 C 323.71875 212.199219 323.101562 214.417969 322.433594 216.625 C 321.765625 218.832031 321.042969 221.019531 320.265625 223.1875 C 319.492188 225.359375 318.660156 227.507812 317.78125 229.636719 C 316.898438 231.765625 315.964844 233.875 314.980469 235.957031 C 313.992188 238.039062 312.957031 240.097656 311.871094 242.132812 C 310.785156 244.164062 309.648438 246.167969 308.464844 248.144531 C 307.28125 250.121094 306.046875 252.070312 304.765625 253.984375 C 303.488281 255.902344 302.160156 257.785156 300.789062 259.636719 C 299.414062 261.488281 297.996094 263.304688 296.535156 265.085938 C 295.074219 266.867188 293.566406 268.613281 292.019531 270.320312 C 290.472656 272.027344 288.882812 273.695312 287.253906 275.328125 C 285.625 276.957031 283.957031 278.546875 282.25 280.09375 C 280.539062 281.640625 278.796875 283.144531 277.015625 284.609375 C 275.234375 286.070312 273.414062 287.488281 271.566406 288.859375 C 269.714844 290.234375 267.828125 291.558594 265.914062 292.839844 C 263.996094 294.121094 262.050781 295.351562 260.074219 296.539062 C 258.097656 297.722656 256.089844 298.859375 254.058594 299.945312 C 252.027344 301.03125 249.96875 302.066406 247.882812 303.050781 C 245.800781 304.035156 243.695312 304.96875 241.566406 305.851562 C 239.4375 306.734375 237.285156 307.5625 235.117188 308.339844 C 232.945312 309.117188 230.757812 309.839844 228.550781 310.507812 C 226.347656 311.175781 224.125 311.789062 221.890625 312.347656 C 219.65625 312.910156 217.40625 313.414062 215.144531 313.863281 C 212.886719 314.3125 210.617188 314.707031 208.335938 315.042969 C 206.054688 315.382812 203.769531 315.664062 201.476562 315.890625 C 199.179688 316.113281 196.882812 316.285156 194.582031 316.398438 C 192.28125 316.507812 189.976562 316.566406 187.671875 316.566406 C 185.367188 316.566406 183.0625 316.507812 180.761719 316.394531 C 178.460938 316.28125 176.160156 316.109375 173.867188 315.882812 C 171.574219 315.65625 169.289062 315.375 167.007812 315.035156 C 164.730469 314.699219 162.457031 314.304688 160.199219 313.855469 C 157.9375 313.402344 155.691406 312.898438 153.453125 312.335938 C 151.21875 311.777344 149 311.164062 146.792969 310.492188 C 144.585938 309.824219 142.398438 309.101562 140.230469 308.324219 C 138.058594 307.546875 135.910156 306.714844 133.78125 305.832031 C 131.652344 304.949219 129.546875 304.015625 127.464844 303.03125 C 125.378906 302.042969 123.324219 301.007812 121.289062 299.921875 C 119.257812 298.835938 117.253906 297.699219 115.277344 296.511719 C 113.300781 295.328125 111.355469 294.09375 109.4375 292.8125 C 107.523438 291.53125 105.640625 290.203125 103.789062 288.832031 C 101.9375 287.457031 100.121094 286.039062 98.339844 284.578125 C 96.558594 283.113281 94.816406 281.609375 93.109375 280.058594 C 91.402344 278.511719 89.734375 276.921875 88.101562 275.292969 Z M 287.21875 76.175781 "/>
</g>
<g clip-path="url(#clip3)" clip-rule="nonzero">
<path style=" stroke:none;fill-rule:nonzero;fill:rgb(0%,0%,0%);fill-opacity:1;" d="M 270.109375 374.449219 C 269.398438 374.445312 268.78125 374.203125 268.253906 373.722656 L 103.152344 208.074219 C 102.914062 207.828125 102.730469 207.546875 102.601562 207.230469 C 102.472656 206.910156 102.410156 206.582031 102.410156 206.238281 C 102.410156 205.894531 102.472656 205.566406 102.601562 205.246094 C 102.730469 204.929688 102.914062 204.648438 103.152344 204.402344 C 103.394531 204.15625 103.671875 203.96875 103.988281 203.835938 C 104.308594 203.703125 104.636719 203.636719 104.980469 203.636719 C 105.328125 203.636719 105.65625 203.703125 105.972656 203.835938 C 106.292969 203.96875 106.570312 204.15625 106.8125 204.402344 L 271.914062 370.046875 C 272.160156 370.289062 272.347656 370.570312 272.480469 370.890625 C 272.613281 371.207031 272.679688 371.539062 272.679688 371.886719 C 272.679688 372.230469 272.613281 372.5625 272.480469 372.878906 C 272.347656 373.199219 272.160156 373.480469 271.914062 373.722656 C 271.40625 374.199219 270.804688 374.441406 270.109375 374.449219 Z M 270.109375 374.449219 "/>
</g>
<g clip-path="url(#clip4)" clip-rule="nonzero">
<path style=" stroke:none;fill-rule:nonzero;fill:rgb(0%,0%,0%);fill-opacity:1;" d="M 228.679688 307.671875 C 227.96875 307.667969 227.367188 307.410156 226.875 306.894531 L 61.71875 141.246094 C 61.472656 141.011719 61.277344 140.738281 61.140625 140.421875 C 61.007812 140.109375 60.9375 139.78125 60.9375 139.4375 C 60.9375 139.09375 61.007812 138.765625 61.140625 138.449219 C 61.277344 138.132812 61.472656 137.859375 61.71875 137.625 C 61.953125 137.375 62.226562 137.179688 62.542969 137.042969 C 62.855469 136.910156 63.183594 136.839844 63.527344 136.839844 C 63.867188 136.839844 64.195312 136.910156 64.511719 137.042969 C 64.824219 137.179688 65.097656 137.375 65.332031 137.625 L 230.433594 303.269531 C 230.671875 303.511719 230.851562 303.789062 230.980469 304.105469 C 231.109375 304.417969 231.171875 304.746094 231.171875 305.082031 C 231.171875 305.421875 231.109375 305.746094 230.980469 306.0625 C 230.851562 306.375 230.671875 306.652344 230.433594 306.894531 C 229.949219 307.382812 229.367188 307.640625 228.679688 307.671875 Z M 228.679688 307.671875 "/>
</g>
<path style=" stroke:none;fill-rule:nonzero;fill:rgb(0%,0%,0%);fill-opacity:1;" d="M 239.050781 370.152344 C 238.339844 370.179688 237.738281 369.9375 237.246094 369.425781 L 72.140625 203.78125 C 71.898438 203.535156 71.710938 203.257812 71.578125 202.9375 C 71.445312 202.617188 71.378906 202.285156 71.378906 201.941406 C 71.378906 201.597656 71.445312 201.265625 71.578125 200.945312 C 71.710938 200.628906 71.898438 200.347656 72.140625 200.105469 C 72.375 199.855469 72.652344 199.660156 72.964844 199.523438 C 73.277344 199.386719 73.605469 199.320312 73.949219 199.320312 C 74.289062 199.320312 74.617188 199.386719 74.933594 199.523438 C 75.246094 199.660156 75.519531 199.855469 75.753906 200.105469 L 240.855469 365.75 C 241.101562 365.992188 241.289062 366.273438 241.421875 366.59375 C 241.554688 366.910156 241.621094 367.242188 241.621094 367.589844 C 241.621094 367.933594 241.554688 368.265625 241.421875 368.585938 C 241.289062 368.902344 241.101562 369.183594 240.855469 369.425781 C 240.363281 369.9375 239.761719 370.179688 239.050781 370.152344 Z M 239.050781 370.152344 "/>
</g>
</svg>
